<?xml version="1.0" encoding="UTF-8"?>
<svg width="600" height="400" viewBox="0 0 600 400" xmlns="http://www.w3.org/2000/svg">
  <!-- Body -->
  <path d="M250,200 C300,200 350,250 350,300 C350,350 300,350 250,350 C200,350 150,350 150,300 C150,250 200,200 250,200" fill="none" stroke="black" stroke-width="2"/>
  
  <!-- Head -->
  <path d="M350,300 C400,300 400,250 350,250 C330,250 330,280 350,280" fill="none" stroke="black" stroke-width="2"/>
  
  <!-- Eyes -->
  <circle cx="370" cy="270" r="5" fill="black"/>
  
  <!-- Teeth -->
  <path d="M350,280 L360,290 M350,290 L360,300" fill="none" stroke="black" stroke-width="2"/>
  
  <!-- Arms -->
  <path d="M300,300 L280,280 M280,300 L260,280" fill="none" stroke="black" stroke-width="2"/>
  
  <!-- Legs -->
  <path d="M300,350 L300,380 L280,380 M200,350 L200,380 L220,380" fill="none" stroke="black" stroke-width="2"/>
  
  <!-- Tail -->
  <path d="M150,300 C100,300 50,250 50,200" fill="none" stroke="black" stroke-width="2"/>
  
  <!-- Claws -->
  <path d="M280,380 L270,390 M220,380 L230,390" fill="none" stroke="black" stroke-width="2"/>
</svg> 